# xmcd CD database file
#
# Track frame offsets:
#	150
#	22278
#	40648
#	55943
#	82848
#	103302
#	125963
#	138665
#	160570
#	181680
#	201013
#	216315
#	244650
#	267163
#
# Disc length: 3607 seconds
#
# Revision: 1
# Processed by: cddbd v1.5.1PL2 Copyright (c) Steve Scherf et al.
# Submitted via: CDex 1.51
#
DISCID=c60e150e
DTITLE=シバ - 青い空の日
DYEAR=1972
DGENRE=ろっく
TTITLE0=淋しい気持ちで
TTITLE1=ものうさ
TTITLE2=もぐらの唄
TTITLE3=どこかへ
TTITLE4=もしも
TTITLE5=バスが走る
TTITLE6=ハッピー・ニュー・イヤー・ブルース
TTITLE7=夜汽車に乗って
TTITLE8=不眠症
TTITLE9=この世で
TTITLE10=帰り道
TTITLE11=青い空の日（ブルースカイ・ブルース）
TTITLE12=私の青空
TTITLE13=data track
EXTD=YEAR: 1972
EXTT0=
EXTT1=
EXTT2=
EXTT3=
EXTT4=
EXTT5=
EXTT6=
EXTT7=
EXTT8=
EXTT9=
EXTT10=
EXTT11=
EXTT12=
EXTT13=
PLAYORDER=
